<svg id="レイヤー_4" data-name="レイヤー 4" xmlns="http://www.w3.org/2000/svg" viewBox="0 0 210.9 210.9"><defs><style>.cls-1{fill:none;stroke:#000;stroke-miterlimit:10;stroke-width:3px;}</style></defs><rect x="49.79" y="54.43" width="3" height="63.65"/><rect x="158.49" y="54.43" width="3" height="63.65"/><path d="M60.16,135.8a8.54,8.54,0,1,1,8.54-8.54A8.55,8.55,0,0,1,60.16,135.8Zm0-14.08a5.54,5.54,0,1,0,5.54,5.54A5.55,5.55,0,0,0,60.16,121.72Z"/><path d="M73.1,152.92H47.23V139.54c0-6.74,9.74-6.74,12.94-6.74s12.94,0,12.94,6.74v13.38Zm-22.87-3H70.11V139.54c0-.92,0-3.74-9.94-3.74s-9.94,2.81-9.94,3.74Z"/><path d="M90.36,135.8a8.54,8.54,0,1,1,8.54-8.54A8.55,8.55,0,0,1,90.36,135.8Zm0-14.08a5.54,5.54,0,1,0,5.54,5.54A5.55,5.55,0,0,0,90.36,121.72Z"/><path d="M103.29,152.92H77.42V139.54c0-6.74,9.74-6.74,12.94-6.74s12.94,0,12.94,6.74v13.38Zm-22.87-3H100.3V139.54c0-.92,0-3.74-9.94-3.74s-9.94,2.81-9.94,3.74Z"/><path d="M120.55,135.8a8.54,8.54,0,1,1,8.54-8.54A8.55,8.55,0,0,1,120.55,135.8Zm0-14.08a5.54,5.54,0,1,0,5.54,5.54A5.55,5.55,0,0,0,120.55,121.72Z"/><path d="M133.49,152.92H107.61V139.54c0-6.74,9.74-6.74,12.94-6.74s12.94,0,12.94,6.74Zm-22.88-3h19.88V139.54c0-.92,0-3.74-9.94-3.74s-9.94,2.81-9.94,3.74Z"/><path d="M150.74,135.8a8.54,8.54,0,1,1,8.54-8.54A8.55,8.55,0,0,1,150.74,135.8Zm0-14.08a5.54,5.54,0,1,0,5.54,5.54A5.55,5.55,0,0,0,150.74,121.72Z"/><path d="M163.68,152.92H137.8V139.54c0-6.74,9.74-6.74,12.94-6.74s12.94,0,12.94,6.74Zm-22.88-3h19.88V139.54c0-.92,0-3.74-9.94-3.74s-9.94,2.81-9.94,3.74Z"/><path d="M154.51,110l-1.73-.27a301.08,301.08,0,0,0-94.27,0l-1.73.27V60.23l1.73.27a301.08,301.08,0,0,0,94.27,0l1.73-.27Zm-48.87-7a304.36,304.36,0,0,1,45.87,3.48V63.73a304,304,0,0,1-91.74,0v42.79A304.36,304.36,0,0,1,105.64,103Z"/><circle class="cls-1" cx="105.45" cy="105.45" r="103.95"/></svg>