<?xml version="1.0" encoding="utf-8"?>
<!-- Generator: Adobe Illustrator 24.3.0, SVG Export Plug-In . SVG Version: 6.00 Build 0)  -->
<svg version="1.1" id="レイヤー_5" xmlns="http://www.w3.org/2000/svg" xmlns:xlink="http://www.w3.org/1999/xlink" x="0px"
	 y="0px" viewBox="0 0 210.9 210.9" style="enable-background:new 0 0 210.9 210.9;" xml:space="preserve">
<style type="text/css">
	.st0{fill:none;stroke:#000000;stroke-width:3;stroke-miterlimit:10;}
</style>
<g>
	<g>
		<path class="st0" d="M78,162.2h28.3c0,0-5.2-9.2-16-12.8s-9.7-7.6-5.5-11.8s5.2-7.6,5.2-18.3s-7.8-12-12.1-12s-12.1,1.3-12.1,12
			s1.1,14.1,5.2,18.3c4.2,4.2,5.2,8.2-5.5,11.8s-16,12.8-16,12.8L78,162.2L78,162.2z"/>
		<path class="st0" d="M134.5,162.2h28.3c0,0-5.2-9.2-16-12.8c-10.7-3.6-9.7-7.6-5.5-11.8s5.2-7.6,5.2-18.3s-7.8-12-12.1-12
			s-12.1,1.3-12.1,12s1.1,14.1,5.2,18.3s5.2,8.2-5.5,11.8s-16,12.8-16,12.8L134.5,162.2L134.5,162.2z"/>
		<line class="st0" x1="122.8" y1="115.6" x2="89.7" y2="115.6"/>
		<polyline class="st0" points="66.2,115.6 49.7,115.6 49.7,48.7 162.8,48.7 162.8,115.6 146.2,115.6 		"/>
		<circle class="st0" cx="69" cy="86.6" r="4.5"/>
		<circle class="st0" cx="97" cy="65.7" r="4.5"/>
		<circle class="st0" cx="116.6" cy="83.5" r="4.5"/>
		<circle class="st0" cx="142.9" cy="61.2" r="4.5"/>
		<line class="st0" x1="93.4" y1="68.5" x2="72.8" y2="84.1"/>
		<line class="st0" x1="100.6" y1="68.5" x2="113.3" y2="80.4"/>
		<line class="st0" x1="119.9" y1="80.4" x2="139.5" y2="64.2"/>
	</g>
	<circle class="st0" cx="105.4" cy="105.4" r="103.9"/>
</g>
</svg>
