<?xml version="1.0" encoding="utf-8"?>
<!-- Generator: Adobe Illustrator 24.3.0, SVG Export Plug-In . SVG Version: 6.00 Build 0)  -->
<svg version="1.1" id="レイヤー_7" xmlns="http://www.w3.org/2000/svg" xmlns:xlink="http://www.w3.org/1999/xlink" x="0px"
	 y="0px" viewBox="0 0 210.9 210.9" style="enable-background:new 0 0 210.9 210.9;" xml:space="preserve">
<style type="text/css">
	.st0{fill:none;stroke:#000000;stroke-width:3;stroke-miterlimit:10;}
</style>
<g>
	<g>
		<rect x="55.7" y="61.5" class="st0" width="99.9" height="22"/>
		<path class="st0" d="M55.7,89.8c0,0,0,45.3,0,50.3c0,5,0.5,9.3,12.8,9.3s65.1,0,75.1,0c10,0,12-3.5,12-9.5c0-6,0-50.1,0-50.1
			S55.7,89.8,55.7,89.8z"/>
		<polygon class="st0" points="92.7,102.8 92.7,137.1 118.8,119.6 		"/>
		<line class="st0" x1="76.9" y1="61.5" x2="64" y2="83.6"/>
		<line class="st0" x1="99.2" y1="61.5" x2="86.3" y2="83.6"/>
		<line class="st0" x1="121.4" y1="61.5" x2="108.5" y2="83.6"/>
		<line class="st0" x1="143.6" y1="61.5" x2="130.7" y2="83.6"/>
	</g>
	<circle class="st0" cx="105.4" cy="105.4" r="103.9"/>
</g>
</svg>
