<?xml version="1.0" encoding="utf-8"?>
<!-- Generator: Adobe Illustrator 24.3.0, SVG Export Plug-In . SVG Version: 6.00 Build 0)  -->
<svg version="1.1" id="レイヤー_6" xmlns="http://www.w3.org/2000/svg" xmlns:xlink="http://www.w3.org/1999/xlink" x="0px"
	 y="0px" viewBox="0 0 210.9 210.9" style="enable-background:new 0 0 210.9 210.9;" xml:space="preserve">
<style type="text/css">
	.st0{fill:none;stroke:#000000;stroke-width:3;stroke-miterlimit:10;}
</style>
<g>
	<g>
		<circle class="st0" cx="105.4" cy="104.1" r="59.1"/>
		<path class="st0" d="M85.3,48.5c8.3,2.7,17.7,11.2,12.5,17.4s-20.5,9-24,22.9s-3.5,26.8-12.9,24s-14.5-12.6-14.5-12.6"/>
		<path class="st0" d="M129.9,50.3c-9.1,5.5-30.3,17.3-9.8,26.7s39.9,4.2,39.7,3.9"/>
		<path class="st0" d="M153.2,138.9c0.9-8.4,8.6-37.6-10.2-34.8s-23,38.8-52.7,57.1"/>
		<path class="st0" d="M76.8,155.8c1.2,0.7,15.1-7.2,13.5-19c-1.6-11.8-23.7-9.9-39.9-11.2"/>
	</g>
	<circle class="st0" cx="105.4" cy="105.4" r="103.9"/>
</g>
</svg>
